<?xml version="1.0" standalone="no"?>
<!DOCTYPE svg PUBLIC "-//W3C//DTD SVG 20010904//EN"
 "http://www.w3.org/TR/2001/REC-SVG-20010904/DTD/svg10.dtd">
<svg version="1.0" xmlns="http://www.w3.org/2000/svg"
 width="152.000000pt" height="152.000000pt" viewBox="0 0 152.000000 152.000000"
 preserveAspectRatio="xMidYMid meet">
<metadata>
Created by potrace 1.16, written by Peter Selinger 2001-2019
</metadata>
<g transform="translate(0.000000,152.000000) scale(0.100000,-0.100000)"
fill="#000000" stroke="none">
<path d="M0 1058 c0 -254 2 -459 4 -457 28 28 60 90 60 119 1 31 4 35 39 42
25 5 62 28 103 63 l65 55 -100 -6 c-75 -5 -104 -4 -116 6 -36 29 -6 69 65 86
45 11 75 12 315 18 110 2 229 9 265 15 66 11 139 6 175 -12 34 -17 65 -50 65
-69 0 -15 17 -5 71 42 57 49 73 59 85 49 8 -6 14 -16 14 -21 0 -5 -37 -50 -83
-101 -101 -112 -107 -120 -73 -107 45 17 130 62 183 97 43 28 52 39 48 56 -7
32 100 92 164 92 25 1 74 2 109 3 l62 2 0 245 0 245 -760 0 -760 0 0 -462z"/>
<path d="M680 906 c-96 -27 -218 -95 -205 -116 3 -4 42 -11 87 -14 144 -12
158 -15 177 -47 l17 -28 62 74 61 73 -35 -9 c-45 -13 -126 -7 -132 8 -2 7 2
15 10 17 7 2 39 12 71 22 32 9 60 21 63 25 8 13 -125 9 -176 -5z"/>
<path d="M1444 812 l-60 -47 18 -30 c50 -83 1 -180 -105 -206 -99 -24 -197 5
-197 58 0 26 53 85 128 143 l33 25 -26 32 -26 32 -57 -25 c-31 -15 -91 -38
-132 -51 -41 -14 -77 -27 -79 -29 -13 -12 114 -145 161 -170 37 -19 35 -40 -6
-54 -59 -19 -109 17 -187 137 -23 35 -45 63 -48 63 -10 0 -90 -108 -109 -147
-9 -18 -21 -33 -28 -33 -18 0 -46 49 -39 70 6 17 2 17 -40 -6 -66 -38 -208
-74 -286 -74 -74 0 -131 28 -137 67 -3 18 3 22 40 28 24 3 58 9 77 12 25 4 32
3 26 -6 -11 -18 72 -4 177 30 96 31 138 54 138 75 0 11 -21 14 -99 14 -55 0
-111 4 -125 9 -14 6 -26 6 -28 1 -2 -5 -55 -16 -119 -24 -64 -9 -123 -18 -132
-22 -20 -7 -112 -130 -121 -161 -8 -25 -26 -29 -44 -11 -9 9 -12 -46 -12 -250
l0 -262 760 0 760 0 0 430 c0 237 -3 430 -7 429 -5 0 -35 -22 -69 -47z"/>
</g>
</svg>
